<svg width="25" height="26" viewBox="0 0 25 26" fill="none" xmlns="http://www.w3.org/2000/svg">
<path d="M22.3056 7.39209H2.69447C2.34822 7.39209 2.01614 7.5309 1.7713 7.77797C1.52647 8.02505 1.38892 8.36015 1.38892 8.70957V21.4919C1.38892 21.8413 1.52647 22.1765 1.7713 22.4235C2.01614 22.6706 2.34822 22.8094 2.69447 22.8094H22.3056C22.6518 22.8094 22.9839 22.6706 23.2287 22.4235C23.4736 22.1765 23.6111 21.8413 23.6111 21.4919V8.70957C23.6111 8.36015 23.4736 8.02505 23.2287 7.77797C22.9839 7.5309 22.6518 7.39209 22.3056 7.39209ZM22.2222 21.4078H2.7778V8.79366H22.2222V21.4078Z" fill="black"/>
<path d="M5.94454 14.0145C6.35658 14.0145 6.75938 13.8912 7.10198 13.6602C7.44458 13.4292 7.71161 13.1009 7.86929 12.7167C8.02697 12.3326 8.06823 11.9098 7.98784 11.502C7.90746 11.0942 7.70904 10.7196 7.41768 10.4256C7.12632 10.1316 6.75511 9.93133 6.35098 9.85021C5.94685 9.76909 5.52796 9.81073 5.14728 9.96985C4.7666 10.129 4.44123 10.3984 4.21231 10.7442C3.98339 11.0899 3.86121 11.4964 3.86121 11.9122C3.86121 12.4698 4.0807 13.0045 4.4714 13.3988C4.8621 13.793 5.39201 14.0145 5.94454 14.0145ZM5.94454 10.7909C6.1654 10.7853 6.38289 10.8463 6.56922 10.9661C6.75556 11.0859 6.90229 11.259 6.99066 11.4633C7.07904 11.6676 7.10504 11.8939 7.06536 12.1132C7.02567 12.3325 6.9221 12.5349 6.76787 12.6946C6.61364 12.8542 6.41576 12.9638 6.1995 13.0094C5.98325 13.055 5.75843 13.0345 5.55378 12.9505C5.34913 12.8665 5.17393 12.7229 5.05057 12.5379C4.9272 12.353 4.86128 12.1351 4.86121 11.9122C4.86112 11.6196 4.97436 11.3386 5.17676 11.1291C5.37917 10.9196 5.6547 10.7982 5.94454 10.7909Z" fill="black"/>
<path d="M5.48602 20.0063L9.65269 15.8016L11.861 18.0301L9.90269 20.0063H11.2916L16.4721 14.7784L20.8332 19.1444V17.7428L16.8055 13.6992C16.7131 13.6068 16.5883 13.5549 16.4582 13.5549C16.3282 13.5549 16.2034 13.6068 16.111 13.6992L12.5277 17.3153L9.97908 14.7504C9.88673 14.658 9.76193 14.6061 9.63186 14.6061C9.50178 14.6061 9.37698 14.658 9.28463 14.7504L4.11102 20.0063H5.48602Z" fill="black"/>
<path d="M20.9306 2.48668C20.9306 2.30082 20.8575 2.12257 20.7272 1.99114C20.597 1.85972 20.4204 1.78589 20.2362 1.78589H4.95842C4.77424 1.78589 4.59761 1.85972 4.46738 1.99114C4.33714 2.12257 4.26398 2.30082 4.26398 2.48668V3.18746H20.9306V2.48668Z" fill="black"/>
<path d="M22.3056 5.2899C22.3056 5.10404 22.2324 4.92579 22.1022 4.79437C21.972 4.66294 21.7953 4.58911 21.6111 4.58911H3.55559C3.37141 4.58911 3.19478 4.66294 3.06454 4.79437C2.93431 4.92579 2.86115 5.10404 2.86115 5.2899V5.99068H22.3056V5.2899Z" fill="black"/>
</svg>
